<svg version="1.1" xmlns="http://www.w3.org/2000/svg" width="333" height="333" viewBox="0 0 222 222"><g transform="scale(0.867,0.867)"><rect fill="#CC0000" x="0" y="0" rx="16" ry="16" width="256" height="256" /><rect fill="#CC0000" x="9" y="9" rx="12" ry="12" width="238" height="238" /></g><g transform="translate(15,15) scale(0.094,0.094)"><g transform="translate(0,0)"><g transform="scale(1,-1) translate(0,-820)"><path stroke="none" fill="#FFFFFF" d="M36 702Q36 743 55 762Q73 781 114 781H347Q403 781 403 740Q403 700 347 700H156Q132 700 121 688Q110 676 110 652V59Q110 35 119 24Q127 13 148 13H176V582Q176 639 217 639Q257 639 257 582V439H283Q302 439 312 451Q321 463 321 487V582Q321 639 357 639Q393 639 393 582V435Q393 394 375 375Q356 357 315 357H257V13H283Q303 13 312 24Q321 35 321 59V250Q321 307 357 307Q393 307 393 250V15Q393 -25 375 -44Q356 -63 315 -63H257V-97Q257 -152 217 -152Q176 -152 176 -97V-69H114Q73 -69 55 -50Q36 -31 36 9V702V702ZM498 781H878Q919 781 937 762Q956 743 956 702V610Q956 569 937 550Q919 531 878 531H793Q769 531 758 520Q747 509 747 485V439H902Q958 439 958 398Q958 357 902 357H747V264H904Q960 264 960 228Q960 192 904 192H747V97H902Q958 97 958 57Q958 17 902 17H747V-75H904Q960 -75 960 -111Q960 -147 904 -147H536Q494 -147 476 -128Q458 -110 458 -69V361Q458 403 476 421Q494 439 536 439H669V525Q669 568 687 586Q705 604 747 604H836Q860 604 872 611Q884 618 884 632V672Q884 686 872 692Q860 698 836 698H669V610Q669 569 650 550Q631 531 590 531H498Q442 531 442 568Q442 604 498 604H552Q576 604 587 616Q598 628 598 652V698H498Q442 698 442 739Q442 781 498 781V781V781ZM530 310V264H669V357H576Q552 357 541 345Q530 334 530 310V310V310ZM530 192V97H669V192H530V192ZM530 17V-26Q530 -50 541 -62Q552 -75 576 -75H669V17H530V17V18V17Z" /></g></g><g transform="translate(1024,0)"><g transform="scale(1,-1) translate(0,-820)"><path stroke="none" fill="#FFFFFF" d="M36 702Q36 743 55 762Q73 781 114 781H347Q403 781 403 740Q403 700 347 700H156Q132 700 121 688Q110 676 110 652V59Q110 35 119 24Q127 13 148 13H176V582Q176 639 217 639Q257 639 257 582V439H283Q302 439 312 451Q321 463 321 487V582Q321 639 357 639Q393 639 393 582V435Q393 394 375 375Q356 357 315 357H257V13H283Q303 13 312 24Q321 35 321 59V250Q321 307 357 307Q393 307 393 250V15Q393 -25 375 -44Q356 -63 315 -63H257V-97Q257 -152 217 -152Q176 -152 176 -97V-69H114Q73 -69 55 -50Q36 -31 36 9V702V702ZM498 781H878Q919 781 937 762Q956 743 956 702V610Q956 569 937 550Q919 531 878 531H793Q769 531 758 520Q747 509 747 485V439H902Q958 439 958 398Q958 357 902 357H747V264H904Q960 264 960 228Q960 192 904 192H747V97H902Q958 97 958 57Q958 17 902 17H747V-75H904Q960 -75 960 -111Q960 -147 904 -147H536Q494 -147 476 -128Q458 -110 458 -69V361Q458 403 476 421Q494 439 536 439H669V525Q669 568 687 586Q705 604 747 604H836Q860 604 872 611Q884 618 884 632V672Q884 686 872 692Q860 698 836 698H669V610Q669 569 650 550Q631 531 590 531H498Q442 531 442 568Q442 604 498 604H552Q576 604 587 616Q598 628 598 652V698H498Q442 698 442 739Q442 781 498 781V781V781ZM530 310V264H669V357H576Q552 357 541 345Q530 334 530 310V310V310ZM530 192V97H669V192H530V192ZM530 17V-26Q530 -50 541 -62Q552 -75 576 -75H669V17H530V17V18V17Z" /></g></g><g transform="translate(0,1024)"><g transform="scale(1,-1) translate(0,-820)"><path stroke="none" fill="#FFFFFF" d="M72 773H221Q261 773 280 754Q299 735 299 694V610Q299 569 280 550Q261 531 221 531H68Q14 531 14 568Q14 604 68 604H170Q194 604 206 611Q217 618 217 632V672Q217 686 206 692Q194 698 170 698H72Q18 698 18 735Q18 773 72 773V773V773ZM697 734V708H904Q960 708 960 663Q960 618 904 618H697V560H878Q919 560 937 541Q956 523 956 481V435Q956 394 937 375Q919 357 878 357H448Q406 357 387 375Q369 394 369 435V481Q369 523 387 541Q406 560 448 560H625V618H416Q358 618 358 663Q358 708 416 708H625V734Q625 790 661 790Q697 790 697 734V734V734ZM444 469V451Q444 444 455 442Q466 439 490 439H536V479H490Q465 479 455 477Q444 474 444 469V469V469ZM607 479V439H711V479H607V479ZM783 479V439H836Q860 439 872 442Q884 445 884 451V469Q884 474 872 477Q861 479 836 479H783V479ZM28 401Q28 443 46 461Q65 479 106 479H221Q262 479 280 461Q299 443 299 401V-69Q299 -109 280 -128Q261 -147 221 -147H70Q16 -147 16 -111Q16 -75 70 -75H170Q194 -75 206 -63Q217 -51 217 -26V355Q217 379 210 390Q202 401 184 401H136Q118 401 111 390Q104 379 104 355V13Q104 -43 66 -43Q28 -43 28 13V401V401ZM410 314H916Q972 314 972 271Q972 228 916 228H783V210Q783 196 794 190Q806 184 830 184H878Q919 184 937 166Q956 147 956 105V15Q956 -25 948 -44Q940 -63 922 -63H906Q895 -63 880 -59Q864 -56 842 -48L783 -32V-75H910Q966 -75 966 -111Q966 -147 910 -147H617Q575 -147 556 -138Q538 -129 538 -109V-107L476 -125Q437 -137 415 -134Q393 -132 385 -117L377 -101Q373 -92 371 -76Q369 -61 369 -36V105Q369 148 387 166Q406 184 448 184H488Q512 184 524 190Q536 196 536 210V228H410Q352 228 352 271Q352 314 410 314V314V314ZM607 228V182Q607 140 587 121Q568 103 528 103H490Q466 103 455 92Q444 81 444 57V-10Q444 -35 454 -43Q464 -52 488 -44L536 -30V25Q536 82 571 82Q607 82 607 25V-26Q607 -52 618 -63Q628 -75 653 -75H711V39Q711 90 747 91Q783 93 783 41V39L838 25Q862 18 873 22Q884 25 884 39V77Q884 91 872 97Q861 103 836 103H789Q747 103 729 121Q711 140 711 182V228H607V228V229V228Z" /></g></g><g transform="translate(1024,1024)"><g transform="scale(1,-1) translate(0,-820)"><path stroke="none" fill="#FFFFFF" d="M36 702Q36 743 55 762Q73 781 114 781H424Q479 781 479 740Q479 700 424 700H285V668H387Q429 668 447 650Q466 632 466 590V570Q466 529 447 510Q428 491 387 491H285V459H806Q861 459 861 423Q861 387 806 387H114Q73 387 55 406Q36 424 36 465V702V702ZM550 781H878Q919 781 937 762Q956 743 956 702V-95Q956 -150 920 -150Q884 -150 884 -95V509L882 507Q857 498 828 494Q797 489 757 489H546Q489 489 489 524Q489 560 546 560H789Q812 560 826 561Q839 562 844 564L856 572L854 582L840 592Q836 594 822 595Q813 596 783 596H548Q491 596 491 632Q491 668 548 668H751Q793 668 823 665Q856 661 882 652V650V672Q882 686 871 692Q860 698 836 698H550Q493 698 493 739Q493 781 550 781V781V781ZM110 682V668H211V698H156Q131 698 121 694Q110 690 110 682V682V682ZM110 598V560H337Q360 560 372 563Q383 565 383 572V588Q383 593 372 596Q362 598 337 598H110V598ZM110 491V477Q110 467 121 463Q132 459 156 459H211V491H110V491ZM36 272Q36 314 55 332Q73 351 114 351H763Q804 351 823 332Q842 314 842 272V33Q842 -8 823 -26Q804 -44 763 -44H580V-59Q580 -66 591 -70Q603 -75 627 -75H795Q853 -75 853 -111Q853 -147 795 -147H586Q545 -147 526 -128Q508 -110 508 -69V-44H371V-69Q371 -109 353 -128Q334 -147 293 -147H88Q32 -147 32 -111Q32 -75 88 -75H249Q272 -75 285 -70Q297 -66 297 -59V-44H114Q73 -44 55 -26Q36 -8 36 33V272V272ZM110 258V242H769V258Q769 268 757 273Q745 278 721 278H156Q131 278 121 273Q110 268 110 258V258V258ZM110 168V139H769V168H110V168ZM110 61V49Q110 41 121 37Q132 33 156 33H721Q744 33 757 37Q769 41 769 49V61H110V61V62V61Z" /></g></g></g></svg>