<svg version="1.1" xmlns="http://www.w3.org/2000/svg" width="333" height="333" viewBox="0 0 222 222"><g transform="scale(0.867,0.867)"><rect fill="#CC0000" x="0" y="0" rx="16" ry="16" width="256" height="256" /><rect fill="#CC0000" x="9" y="9" rx="12" ry="12" width="238" height="238" /></g><g transform="translate(15,15) scale(0.094,0.094)"><g transform="translate(0,0)"><g transform="scale(1,-1) translate(0,-820)"><path stroke="none" fill="#FFFFFF" d="M448 710Q476 739 503 739Q529 738 556 708L572 692H896Q952 692 952 655Q952 618 896 618H820V523H898Q954 523 954 483Q954 443 898 443H820V351H904Q960 351 960 314Q960 278 904 278H86Q30 278 30 314Q30 351 86 351H168V443H88Q32 443 32 483Q32 523 88 523H168V618H88Q32 618 32 655Q32 692 88 692H430L448 710V710ZM241 618V523H355V618H241V618ZM428 618V523H558V618H428V618ZM633 618V523H747V618H633V618ZM241 443V351H355V443H241V443ZM428 443V351H558V443H428V443ZM633 443V351H747V443H633V443ZM36 202Q36 259 73 259Q110 259 110 202V53Q110 -2 73 -2Q36 -2 36 53V202V202ZM319 212V93Q319 68 327 51Q336 32 355 19L452 -52Q497 -86 475 -120Q452 -154 406 -123L311 -59Q290 -45 271 -44Q252 -43 231 -55L90 -129Q40 -156 22 -120Q3 -84 52 -57L207 25Q228 36 238 52Q249 69 249 93V212Q249 269 284 269Q319 269 319 212V212V212ZM458 206Q458 263 494 263Q530 263 530 206V53Q530 -2 494 -2Q458 -2 458 53V206V206ZM747 212V93Q747 69 757 52Q766 35 787 23L916 -55Q966 -83 945 -120Q923 -157 874 -127L755 -55Q734 -42 715 -43Q696 -44 677 -59L594 -121Q549 -155 524 -118Q499 -80 544 -46L631 15Q650 28 660 47Q669 65 669 89V212Q669 269 708 269Q747 269 747 212V212V212ZM884 202Q884 259 920 259Q956 259 956 202V53Q956 -2 920 -2Q884 -2 884 53V202V202V203V202Z" /></g></g><g transform="translate(1024,0)"><g transform="scale(1,-1) translate(0,-820)"><path stroke="none" fill="#FFFFFF" d="M110 714V535Q110 511 119 499Q128 487 148 487H176V694Q176 735 194 754Q213 773 255 773H343Q399 773 399 736Q399 700 343 700H299Q277 700 267 688Q257 677 257 652V487H283Q302 487 312 498Q321 508 321 529V568Q321 625 357 625Q393 625 393 568V493Q393 453 375 434Q356 415 315 415H257V-2H283Q302 -2 312 9Q321 21 321 45V284Q321 341 357 341Q393 341 393 284V-4Q393 -45 375 -64Q356 -83 315 -83H257V-99Q257 -154 217 -154Q176 -154 176 -99V-83H114Q73 -83 55 -64Q36 -45 36 -4V278Q36 335 73 335Q110 335 110 278V45Q110 20 119 9Q128 -2 148 -2H176V407H114Q73 407 55 426Q36 444 36 485V714Q36 770 73 770Q110 770 110 714V714V714ZM530 722V117Q530 92 534 81Q538 69 548 69H578Q589 69 594 81Q598 93 598 117V722Q598 778 634 778Q669 778 669 722V632H836Q860 632 872 637Q884 642 884 652V680Q884 690 872 694Q861 698 836 698H767Q710 698 710 739Q710 781 767 781H878Q919 781 937 762Q956 743 956 702V630Q956 589 937 570Q919 552 878 552H669V67Q669 26 650 8Q631 -10 590 -10H536Q494 -10 476 8Q458 26 458 67V722Q458 778 494 778Q530 778 530 722V722V722ZM739 409Q739 451 757 469Q775 487 818 487H878Q919 487 937 469Q956 451 956 409V-93Q956 -148 920 -148Q884 -148 884 -93V369Q884 392 879 404Q875 415 866 415H838Q827 415 823 404Q820 394 820 369V-69Q820 -109 801 -128Q782 -147 741 -147H514Q457 -147 457 -111Q457 -75 514 -75H691Q715 -75 727 -63Q739 -50 739 -26V409V409V410V409Z" /></g></g><g transform="translate(0,1024)"><g transform="scale(1,-1) translate(0,-820)"><path stroke="none" fill="#FFFFFF" d="M102 781H367Q408 781 435 767Q462 753 482 722L500 696Q510 680 527 672Q544 664 568 664H838Q862 664 874 672Q886 680 886 698V726Q886 782 921 782Q956 782 956 726V666Q956 625 937 607Q919 588 878 588H603Q578 588 571 583Q563 578 570 568L590 533Q598 523 612 517Q627 511 651 511H900Q956 511 956 474Q956 437 900 437H693Q669 437 664 428Q659 420 671 399L932 -30Q962 -78 933 -101Q905 -123 876 -75L588 397Q576 418 559 427Q542 437 518 437H102Q46 437 46 474Q46 511 102 511H474Q498 511 503 522Q508 532 496 554L434 658Q422 679 405 689Q388 698 363 698H102Q46 698 46 739Q46 781 102 781V781V781ZM102 357H556Q612 357 612 317Q612 278 556 278H257V188Q257 163 268 152Q279 139 303 139H434Q475 139 493 121Q512 103 512 61V-63H594Q650 -63 650 -105Q650 -147 594 -147H102Q46 -147 46 -105Q46 -63 102 -63H434V15Q434 39 422 50Q410 61 385 61H255Q213 61 194 80Q176 98 176 139V278H102Q46 278 46 317Q46 357 102 357V357V357V358V357Z" /></g></g><g transform="translate(1024,1024)"><g transform="scale(1,-1) translate(0,-820)"><path stroke="none" fill="#FFFFFF" d="M231 783Q269 797 304 797Q337 797 377 783L556 714Q609 695 595 658Q580 622 526 640L353 694Q329 702 308 702Q287 702 263 694L84 636Q30 618 16 659Q2 701 54 720L231 783V783ZM896 781Q952 781 952 740Q952 700 896 700H761Q737 700 726 690Q715 679 715 658V602Q715 580 726 570Q737 560 761 560H878Q919 560 937 541Q956 523 956 481V-69Q956 -109 937 -128Q919 -147 878 -147H687Q630 -147 630 -111Q630 -75 687 -75H836Q860 -75 872 -63Q884 -50 884 -26V433Q884 457 872 468Q860 479 836 479H713Q671 479 653 498Q635 516 635 558V702Q635 743 653 762Q671 781 713 781H896V781ZM102 622H508Q564 622 564 577Q564 531 508 531H102Q46 531 46 577Q46 622 102 622V622V622ZM196 481V501Q196 519 237 519Q277 519 277 501V306Q277 266 258 247Q239 228 198 228H190V184H198Q240 184 258 166Q277 147 277 105V59Q277 18 258 0Q239 -18 198 -18H156Q132 -18 121 -22Q110 -25 110 -32V-59Q110 -66 121 -70Q133 -75 156 -75H239Q294 -75 294 -111Q294 -147 239 -147H114Q73 -147 55 -128Q36 -109 36 -69V-16Q36 25 55 43Q73 61 114 61H156Q180 61 192 64Q205 67 205 73V93Q205 99 192 101Q182 103 156 103H76Q20 103 20 143Q20 184 76 184H118V228H114Q73 228 55 247Q36 266 36 306V481Q36 519 76 519Q116 519 114 481V481H196V481ZM494 481V503Q494 521 537 521Q580 521 580 503V306Q580 266 562 247Q543 228 502 228H494V184H502Q543 184 562 166Q580 147 580 105V59Q580 18 562 0Q543 -18 502 -18H454Q429 -18 419 -22Q408 -25 408 -32V-59Q408 -66 419 -70Q430 -75 454 -75H536Q592 -75 592 -111Q592 -147 536 -147H408Q366 -147 347 -128Q329 -110 329 -69V-16Q329 25 347 43Q365 61 408 61H452Q476 61 488 64Q500 67 500 73V93Q500 99 488 101Q477 103 452 103H359Q302 103 302 143Q302 184 359 184H414V228H408Q366 228 347 247Q329 265 329 306V481Q329 511 365 511Q401 511 399 481V481H494V481ZM675 405Q675 462 715 462Q755 462 755 405V3Q755 -52 715 -52Q675 -52 675 3V405V405ZM110 401V363Q110 338 116 326Q122 314 136 314H176Q189 314 196 326Q203 338 203 363V401H110V401ZM408 401V363Q408 337 413 326Q419 314 434 314H472Q486 314 492 326Q498 337 498 363V401H408V401V402V401Z" /></g></g></g></svg>