<svg version="1.1" xmlns="http://www.w3.org/2000/svg" width="333" height="333" viewBox="0 0 222 222"><g transform="scale(0.867,0.867)"><rect fill="#CC0000" x="0" y="0" rx="16" ry="16" width="256" height="256" /><rect fill="#CC0000" x="9" y="9" rx="12" ry="12" width="238" height="238" /></g><g transform="translate(15,15) scale(0.094,0.094)"><g transform="translate(0,0)"><g transform="scale(1,-1) translate(0,-820)"><path stroke="none" fill="#FFFFFF" d="M856 -60Q852 156 796 188Q744 224 736 244Q740 276 776 280Q816 284 816 412Q812 444 796 444Q776 440 776 404Q776 332 756 312Q732 292 736 348Q736 412 740 424Q748 440 760 452Q784 496 780 508Q776 524 848 516Q876 520 872 536Q864 556 848 556Q804 556 792 560Q780 564 784 580Q780 600 768 608Q752 616 752 596Q752 576 744 568Q732 560 712 564Q664 560 660 568Q652 576 656 596Q656 628 636 628Q612 628 616 596Q616 576 608 568Q604 564 576 564Q540 564 536 576Q532 588 536 644Q532 676 576 664Q624 656 760 628Q788 624 800 632Q808 644 776 660Q636 700 580 696Q524 696 528 756Q528 780 508 776Q488 776 488 748Q496 708 452 712Q404 716 248 692Q212 684 220 668Q232 652 264 652Q404 672 452 672Q496 672 496 652Q496 592 492 576Q484 564 464 564Q416 564 408 568Q396 576 400 612Q396 636 380 640Q360 640 360 620Q360 580 352 572Q348 564 320 564Q296 564 288 572Q276 580 280 612Q276 632 256 632Q240 628 232 604Q232 572 220 568Q204 564 160 564Q136 564 136 544Q136 528 160 524Q196 528 212 532Q228 536 224 524Q236 452 256 440Q276 424 280 404Q284 332 280 308Q276 284 264 284Q256 284 248 312Q240 340 240 396Q240 428 224 424Q208 424 200 396Q204 276 236 264Q264 252 272 228Q264 208 220 172Q172 140 168 -52Q168 -80 188 -80Q204 -76 208 -44Q208 60 224 108Q236 160 264 156Q268 164 264 100Q260 40 256 -172Q252 -188 272 -188Q292 -188 296 -172Q300 48 304 108Q308 164 320 156Q332 160 340 116Q348 72 352 -52Q352 -84 372 -80Q388 -76 392 -52Q392 160 352 172Q316 188 312 220Q316 248 352 256Q384 268 392 380Q388 400 372 404Q352 412 352 380Q348 304 332 288Q312 272 312 308Q308 396 316 412Q324 432 344 436Q388 468 392 496Q400 524 416 524Q452 528 468 524Q488 524 488 516Q484 484 468 460Q452 436 424 404Q412 388 428 380Q444 376 464 380Q504 440 512 424Q520 412 560 364Q576 356 584 372Q592 388 584 404Q556 424 544 448Q528 472 536 500Q532 520 536 524Q540 528 552 524Q584 528 600 524Q616 520 616 508Q624 452 656 440Q688 432 696 396Q696 340 692 324Q688 308 680 308Q672 308 664 328Q656 352 656 396Q652 428 636 428Q616 428 616 396Q620 288 656 280Q688 268 696 236Q688 216 644 180Q604 144 616 -84Q624 -116 644 -112Q664 -104 664 -76Q648 60 660 116Q676 172 696 172Q700 184 704 120Q708 60 720 -172Q720 -188 740 -188Q760 -188 760 -172Q744 68 740 128Q736 188 744 172Q772 176 792 120Q812 64 816 -76Q816 -108 836 -104Q852 -96 856 -60V-60V-60ZM736 508Q736 496 728 484Q720 472 704 468Q684 468 672 476Q664 488 664 508Q656 520 664 524Q672 528 688 524Q716 528 724 524Q736 520 736 508V508V508ZM352 508Q356 496 340 480Q320 464 304 460Q296 464 284 476Q272 492 272 516Q272 524 280 528Q292 532 312 524Q340 528 344 524Q352 520 352 508V508V508ZM616 228Q576 248 556 272Q536 300 536 340Q532 368 516 368Q496 372 496 340Q500 320 500 304Q496 288 480 268Q456 256 448 264Q440 272 448 316Q444 336 432 336Q416 332 416 308Q408 232 408 180Q412 132 448 124Q532 116 536 64Q540 16 536 -164Q536 -188 560 -188Q580 -188 584 -164L576 76Q564 132 508 144Q448 152 440 188Q440 208 444 216Q448 224 456 220Q520 244 528 244Q540 248 592 196Q608 188 620 200Q632 216 616 228V228V228V229V228Z" /></g></g><g transform="translate(1024,0)"><g transform="scale(1,-1) translate(0,-820)"><path stroke="none" fill="#FFFFFF" d="M864 708Q884 740 864 756Q844 776 832 756Q752 528 760 424Q772 324 736 324Q712 332 708 332Q700 336 704 356Q700 448 708 540Q712 632 736 716Q732 756 708 764Q688 776 680 732Q636 436 652 340Q668 244 648 252Q616 252 600 356Q580 460 600 684Q600 716 580 724Q560 728 552 692Q540 328 580 256Q616 188 680 196Q712 204 704 236Q692 272 728 276Q820 284 812 404Q804 524 864 708V708V708ZM832 -148Q788 -64 784 16Q780 92 800 164Q804 216 780 216Q752 216 744 188Q704 108 620 128Q536 148 504 244Q488 288 468 264Q448 240 464 204Q536 100 604 80Q672 60 712 84Q736 100 740 36Q740 -24 792 -180Q808 -192 828 -188Q852 -180 832 -148V-148V-148ZM440 644Q436 680 416 676Q392 672 392 644Q392 536 364 496Q332 456 336 500Q336 644 344 672Q348 700 424 708Q452 720 456 740Q456 760 416 756Q328 728 308 704Q292 680 296 540Q292 496 288 480Q284 468 280 468Q260 464 244 500Q232 532 232 652Q228 684 212 680Q196 680 192 652Q184 464 232 444Q280 424 288 412Q288 276 284 232Q280 192 272 196Q256 196 240 236Q224 276 232 380Q228 412 212 404Q192 400 192 372Q184 192 232 168Q280 144 288 132Q288 56 284 -20Q276 -92 216 -156Q196 -172 208 -180Q220 -188 248 -180Q304 -136 320 -44Q336 52 336 132Q340 148 384 184Q428 224 432 380Q428 408 408 412Q388 420 392 388Q388 300 372 248Q352 200 336 204Q328 200 328 248Q324 296 328 412Q332 432 380 456Q424 476 440 644V644V644V645V644Z" /></g></g><g transform="translate(0,1024)"><g transform="scale(1,-1) translate(0,-820)"><path stroke="none" fill="#FFFFFF" d="M784 -132Q708 80 660 240Q612 400 600 516Q592 544 620 536Q648 532 688 532Q720 544 724 564Q732 588 688 588Q616 588 596 588Q572 588 576 612Q580 644 640 656Q700 668 672 780Q656 792 636 788Q612 784 624 764Q636 736 632 720Q628 704 600 692Q576 676 572 684Q564 692 568 732Q556 768 540 760Q520 748 520 716Q548 604 516 592Q488 576 272 564Q228 564 236 540Q240 520 280 516Q456 536 504 540Q552 540 552 500Q572 440 528 432Q484 428 280 428Q236 424 240 400Q240 372 280 372Q352 388 368 388Q384 388 384 340Q384 300 368 292Q348 280 264 276Q232 276 240 252Q248 232 280 228Q300 232 328 240Q352 252 424 252Q512 252 540 248Q568 244 584 260Q596 288 620 212Q644 132 736 -148Q756 -176 772 -172Q792 -168 784 -132V-132V-132ZM576 340Q588 308 576 300Q564 292 512 292Q448 292 436 300Q428 308 432 348Q428 384 440 388Q452 392 504 388Q536 392 552 388Q564 380 576 340V340V340V341V340Z" /></g></g><g transform="translate(1024,1024)"><g transform="scale(1,-1) translate(0,-820)"><path stroke="none" fill="#FFFFFF" d="M608 532Q556 644 488 708Q420 772 384 772Q368 764 312 692Q256 616 200 500Q192 472 208 468Q220 464 240 484Q260 528 272 540Q280 556 304 548L472 556Q492 560 492 576Q488 596 464 596Q356 596 332 596Q304 600 320 620Q336 648 360 680Q384 716 400 716Q420 716 472 664Q524 616 576 516Q592 484 604 500Q616 512 608 532V532V532ZM824 380Q816 456 780 472Q744 488 696 484Q648 492 712 576Q776 660 720 748Q696 776 680 764Q660 752 688 724Q724 636 660 572Q596 512 640 412Q656 384 664 340Q672 296 672 252Q668 236 652 240Q632 244 608 244Q600 244 600 224Q600 208 624 196Q656 192 660 184Q664 176 664 164Q660 100 648 44Q632 -8 608 -76Q584 -104 604 -108Q624 -112 640 -92Q748 152 712 292Q676 432 704 428Q752 432 764 424Q772 420 776 388Q796 300 788 160Q784 24 704 -140Q700 -168 716 -172Q732 -172 744 -156Q828 -20 832 136Q840 292 824 380V380V380ZM576 452Q572 480 556 484Q540 492 536 460Q536 444 532 436Q528 428 512 428Q488 428 480 432Q468 440 472 460Q468 480 452 480Q436 480 432 460Q424 312 432 276Q436 240 504 244Q564 240 576 280Q584 320 576 452V452V452ZM536 348Q536 320 528 312Q524 300 496 300Q476 300 472 308Q468 320 472 364Q476 384 484 388Q492 392 504 388Q524 392 532 384Q536 380 536 348V348V348ZM392 452Q384 480 368 484Q352 492 352 460Q352 444 344 436Q332 428 312 428Q292 428 284 432Q276 440 280 460Q276 480 264 480Q248 480 248 460Q236 312 244 276Q248 240 312 244Q372 240 384 280Q392 320 392 452V452V452ZM344 348Q348 320 340 312Q332 300 304 300Q292 300 288 308Q284 320 288 364Q288 384 292 388Q300 392 312 388Q332 392 340 384Q348 380 344 348V348V348ZM560 -108Q584 76 548 148Q516 224 416 180Q396 172 400 156Q404 140 424 140Q440 152 440 100Q436 52 432 -84Q428 -116 444 -108Q460 -104 472 -84Q472 52 472 104Q472 152 496 148Q520 148 528 88Q536 24 520 -92Q520 -132 540 -132Q556 -132 560 -108V-108V-108ZM384 -108Q400 76 368 148Q332 224 232 180Q212 172 216 156Q220 140 240 140Q260 152 256 100Q252 52 248 -84Q244 -116 260 -108Q276 -104 280 -84Q288 52 288 104Q288 152 312 148Q336 148 340 88Q348 24 336 -92Q336 -132 356 -132Q372 -132 384 -108V-108V-108V-107V-108Z" /></g></g></g></svg>