<svg version="1.1" xmlns="http://www.w3.org/2000/svg" width="111" height="111" viewBox="0 0 74 74"><g transform="scale(0.289,0.289)"><rect fill="#CC0000" x="0" y="0" rx="16" ry="16" width="256" height="256" /><rect fill="#CC0000" x="9" y="9" rx="12" ry="12" width="238" height="238" /></g><g transform="translate(5,5) scale(0.031,0.031)"><g transform="translate(0,0)"><g transform="scale(1,-1) translate(0,-820)"><path stroke="none" fill="#FFFFFF" d="M48 132L40 108L48 92L64 84Q76 86 93 89T132 95T171 99T200 100Q232 110 280 113T392 107T504 91T584 84L600 108Q598 110 596 113T592 120T588 127T584 132Q566 142 537 150T468 161T399 166T352 172V292Q356 292 363 292T380 292T397 292T408 292H504Q520 292 541 303T578 342T595 393T592 428Q592 442 594 463T597 511T594 557T584 588Q580 590 575 592T565 595T557 596T552 596L536 580Q536 572 536 560T536 532T536 504T536 484H392Q388 484 382 484T369 484T358 484T352 484Q352 488 352 494T352 508T352 522T352 532Q352 532 352 532T353 532T356 532T360 532Q376 534 396 545T431 581T448 627T448 660H576L592 684Q592 688 591 694T586 707T577 718T568 724Q558 724 543 723T508 721T473 721T448 724V764Q444 768 439 772T429 778T421 780T416 780Q408 778 400 772T388 754T384 732T384 716L248 724Q248 728 248 734T247 748T244 762T240 772Q236 774 231 775T221 775T213 773T208 772Q204 772 199 770T190 763T185 754T184 748V716L48 708L40 700V684Q40 682 41 679T45 672T51 665T56 660Q66 662 82 663T120 663T158 661T184 660V628Q182 616 188 598T215 561T256 534T288 524V484H104Q102 492 102 505T102 536T98 567T88 588Q84 590 77 591T61 588T47 577T40 564Q38 562 37 558T37 548T39 538T40 532Q42 512 38 480T35 407T54 340T96 300Q112 298 136 297T192 296T248 295T288 292V172Q268 168 238 165T168 158T98 147T48 132V132ZM40 -108V-124Q40 -126 41 -129T46 -136T55 -143T64 -148Q106 -146 169 -144T316 -142T463 -144T568 -148Q570 -146 573 -143T580 -136T587 -129T592 -124V-108L584 -92Q580 -90 574 -88T560 -85T546 -84T536 -84H352Q352 -80 352 -73T352 -56T352 -39T352 -28Q370 -26 398 -27T465 -30T534 -29T584 -20L592 -4V12L584 28Q564 30 534 31T465 32T398 33T352 36V52L336 68Q334 70 330 72T320 75T310 76T304 76L288 60V28Q268 30 239 31T173 32T109 33T64 36Q58 34 52 30T43 19T40 6T40 -4Q42 -6 44 -9T48 -16T52 -23T56 -28Q76 -30 105 -30T172 -28T239 -26T288 -28V-36V-84Q268 -86 238 -86T168 -86T98 -90T48 -100L40 -108V-108ZM48 236Q46 234 44 231T41 224T40 217T40 212Q42 210 44 207T49 200T56 193T64 188Q76 190 95 193T140 200T185 207T216 212L224 220V244L208 260Q194 258 173 258T125 257T79 250T48 236V236ZM104 364Q102 368 101 375T101 392T103 409T104 420Q110 420 119 420T140 420T161 420T176 420H288V356L120 348L104 364V364ZM248 612V660Q260 660 278 660T320 660T362 660T392 660V612Q390 610 387 607T380 600T373 593T368 588Q358 590 343 591T309 592T277 593T256 596L248 612V612ZM536 372Q534 370 531 367T524 361T517 357T512 356Q498 356 477 355T429 353T383 353T352 356Q352 362 352 371T352 391T352 409T352 420H536V372V372ZM424 260Q420 258 416 254T410 244T408 234T408 228L416 204Q428 202 447 201T492 200T537 199T568 196Q570 198 573 200T580 204T587 208T592 212Q592 216 592 221T591 232T588 243T584 252Q570 254 549 256T501 259T455 260T424 260V260ZM952 772L944 780Q924 780 894 780T824 780T754 780T704 780Q682 774 661 757T631 707T623 647T624 604Q628 590 640 573T676 544T720 531T752 532L760 412V372H704Q700 380 698 392T694 419T686 444T672 460L664 468Q660 468 655 467T644 462T633 453T624 444Q632 422 640 389T654 312T664 235T672 180Q670 156 666 120T654 36T638 -48T624 -108Q624 -110 625 -114T630 -125T639 -138T648 -148H664Q666 -146 669 -142T676 -132T683 -122T688 -116Q694 -80 702 -26T716 99T722 222T720 308H760Q760 278 760 232T760 123T760 12T760 -68Q760 -74 758 -84T757 -108T766 -132T784 -148H800Q802 -146 805 -143T812 -136T819 -129T824 -124Q822 -106 820 -80T817 -20T816 40T816 84V156Q816 168 816 187T817 232T820 277T824 308H856V228Q856 198 859 153T870 48T885 -57T896 -132L928 -148L952 -140L960 -124Q960 -116 959 -105T956 -80T953 -55T952 -36Q940 14 931 90T926 268T941 446T960 572Q958 574 955 577T948 584T941 591T936 596Q934 596 931 596T923 595T913 592T904 588Q898 570 892 543T881 481T872 421T864 380H816Q816 392 816 410T816 452T816 494T816 524Q812 542 800 559T764 585T720 597T688 604Q686 612 685 624T685 651T687 676T688 692Q688 694 689 697T693 704T699 711T704 716Q710 716 720 716T744 716T768 716T784 716Q798 718 820 718T872 718T924 722T960 732V748L952 772V772Z" /></g></g><g transform="translate(1024,0)"><g transform="scale(1,-1) translate(0,-820)"><path stroke="none" fill="#FFFFFF" d="M48 132L40 108L48 92L64 84Q76 86 93 89T132 95T171 99T200 100Q232 110 280 113T392 107T504 91T584 84L600 108Q598 110 596 113T592 120T588 127T584 132Q566 142 537 150T468 161T399 166T352 172V292Q356 292 363 292T380 292T397 292T408 292H504Q520 292 541 303T578 342T595 393T592 428Q592 442 594 463T597 511T594 557T584 588Q580 590 575 592T565 595T557 596T552 596L536 580Q536 572 536 560T536 532T536 504T536 484H392Q388 484 382 484T369 484T358 484T352 484Q352 488 352 494T352 508T352 522T352 532Q352 532 352 532T353 532T356 532T360 532Q376 534 396 545T431 581T448 627T448 660H576L592 684Q592 688 591 694T586 707T577 718T568 724Q558 724 543 723T508 721T473 721T448 724V764Q444 768 439 772T429 778T421 780T416 780Q408 778 400 772T388 754T384 732T384 716L248 724Q248 728 248 734T247 748T244 762T240 772Q236 774 231 775T221 775T213 773T208 772Q204 772 199 770T190 763T185 754T184 748V716L48 708L40 700V684Q40 682 41 679T45 672T51 665T56 660Q66 662 82 663T120 663T158 661T184 660V628Q182 616 188 598T215 561T256 534T288 524V484H104Q102 492 102 505T102 536T98 567T88 588Q84 590 77 591T61 588T47 577T40 564Q38 562 37 558T37 548T39 538T40 532Q42 512 38 480T35 407T54 340T96 300Q112 298 136 297T192 296T248 295T288 292V172Q268 168 238 165T168 158T98 147T48 132V132ZM40 -108V-124Q40 -126 41 -129T46 -136T55 -143T64 -148Q106 -146 169 -144T316 -142T463 -144T568 -148Q570 -146 573 -143T580 -136T587 -129T592 -124V-108L584 -92Q580 -90 574 -88T560 -85T546 -84T536 -84H352Q352 -80 352 -73T352 -56T352 -39T352 -28Q370 -26 398 -27T465 -30T534 -29T584 -20L592 -4V12L584 28Q564 30 534 31T465 32T398 33T352 36V52L336 68Q334 70 330 72T320 75T310 76T304 76L288 60V28Q268 30 239 31T173 32T109 33T64 36Q58 34 52 30T43 19T40 6T40 -4Q42 -6 44 -9T48 -16T52 -23T56 -28Q76 -30 105 -30T172 -28T239 -26T288 -28V-36V-84Q268 -86 238 -86T168 -86T98 -90T48 -100L40 -108V-108ZM48 236Q46 234 44 231T41 224T40 217T40 212Q42 210 44 207T49 200T56 193T64 188Q76 190 95 193T140 200T185 207T216 212L224 220V244L208 260Q194 258 173 258T125 257T79 250T48 236V236ZM104 364Q102 368 101 375T101 392T103 409T104 420Q110 420 119 420T140 420T161 420T176 420H288V356L120 348L104 364V364ZM248 612V660Q260 660 278 660T320 660T362 660T392 660V612Q390 610 387 607T380 600T373 593T368 588Q358 590 343 591T309 592T277 593T256 596L248 612V612ZM536 372Q534 370 531 367T524 361T517 357T512 356Q498 356 477 355T429 353T383 353T352 356Q352 362 352 371T352 391T352 409T352 420H536V372V372ZM424 260Q420 258 416 254T410 244T408 234T408 228L416 204Q428 202 447 201T492 200T537 199T568 196Q570 198 573 200T580 204T587 208T592 212Q592 216 592 221T591 232T588 243T584 252Q570 254 549 256T501 259T455 260T424 260V260ZM952 772L944 780Q924 780 894 780T824 780T754 780T704 780Q682 774 661 757T631 707T623 647T624 604Q628 590 640 573T676 544T720 531T752 532L760 412V372H704Q700 380 698 392T694 419T686 444T672 460L664 468Q660 468 655 467T644 462T633 453T624 444Q632 422 640 389T654 312T664 235T672 180Q670 156 666 120T654 36T638 -48T624 -108Q624 -110 625 -114T630 -125T639 -138T648 -148H664Q666 -146 669 -142T676 -132T683 -122T688 -116Q694 -80 702 -26T716 99T722 222T720 308H760Q760 278 760 232T760 123T760 12T760 -68Q760 -74 758 -84T757 -108T766 -132T784 -148H800Q802 -146 805 -143T812 -136T819 -129T824 -124Q822 -106 820 -80T817 -20T816 40T816 84V156Q816 168 816 187T817 232T820 277T824 308H856V228Q856 198 859 153T870 48T885 -57T896 -132L928 -148L952 -140L960 -124Q960 -116 959 -105T956 -80T953 -55T952 -36Q940 14 931 90T926 268T941 446T960 572Q958 574 955 577T948 584T941 591T936 596Q934 596 931 596T923 595T913 592T904 588Q898 570 892 543T881 481T872 421T864 380H816Q816 392 816 410T816 452T816 494T816 524Q812 542 800 559T764 585T720 597T688 604Q686 612 685 624T685 651T687 676T688 692Q688 694 689 697T693 704T699 711T704 716Q710 716 720 716T744 716T768 716T784 716Q798 718 820 718T872 718T924 722T960 732V748L952 772V772Z" /></g></g><g transform="translate(0,1024)"><g transform="scale(1,-1) translate(0,-820)"><path stroke="none" fill="#FFFFFF" d="M72 12Q72 2 69 -14T59 -53T47 -94T40 -124L56 -148H64Q76 -148 89 -140T112 -112T127 -76T136 -52Q140 -32 134 -3T116 63T106 127T120 172Q122 172 125 173T132 176T139 179T144 180Q148 180 155 180T172 180T189 180T200 180L208 100V60V-132Q210 -134 212 -136T217 -140T224 -144T232 -148H248Q250 -146 253 -143T260 -136T267 -129T272 -124L264 180Q272 180 287 182T322 181T353 166T368 140Q368 130 365 115T355 80T343 45T336 20Q336 6 337 -15T346 -64T367 -113T392 -148Q406 -148 417 -140T427 -112T419 -76T408 -52Q402 -36 401 -12T408 45T423 104T432 148Q428 168 412 191T363 229T304 245T264 244V292Q278 290 305 291T365 307T411 345T424 388Q424 410 411 434T365 472T305 486T264 484V532L368 540Q376 544 388 552T411 574T424 600T424 620Q426 642 414 668T368 711T306 728T264 724L256 764Q252 768 247 771T236 774T225 773T216 772L200 756V724Q192 724 180 724T152 723T124 720T104 716Q94 712 80 703T53 678T36 649T32 628Q32 622 34 613T43 591T58 567T72 548Q82 542 98 537T136 530T174 527T200 524V484Q186 486 161 486T105 473T59 438T40 396V356Q40 356 40 356T41 356T44 356T48 356Q56 336 73 319T118 297T167 293T200 292V244Q200 244 200 244T199 244T196 244T192 244Q178 246 151 243T92 221T49 177T40 132Q42 122 46 107T56 72T66 37T72 12V12ZM352 596H224Q214 596 199 595T165 593T133 593T112 596Q106 600 100 605T92 616T92 627T96 636Q96 638 97 642T102 651T111 658T120 660H200Q212 662 230 663T273 663T318 661T352 660Q354 658 356 656T360 651T364 644T368 636Q368 634 368 630T366 619T360 606T352 596V596ZM104 412L120 420Q128 420 140 420T168 420T196 420T216 420H344L376 396Q374 392 371 386T364 373T357 362T352 356Q332 356 302 356T232 356T162 356T112 356L104 364Q102 368 100 374T98 388T100 402T104 412V412ZM504 36Q504 24 501 5T490 -41T475 -89T464 -124Q464 -126 465 -129T470 -136T479 -143T488 -148H504Q504 -146 505 -144T508 -141T511 -140T512 -140Q532 -116 550 -78T567 12T550 102T520 164L528 196Q530 200 534 205T544 214T554 219T560 220H680V68Q680 64 680 57T680 40T680 23T680 12L688 -124Q688 -126 689 -129T693 -136T699 -143T704 -148H728L744 -132Q744 -114 743 -87T741 -24T741 39T744 84V220Q744 220 744 220T744 220T744 220T744 220Q756 218 778 221T830 224T878 211T904 180Q902 168 895 150T877 107T861 62T856 28Q858 14 861 -8T874 -59T899 -108T928 -140H944L960 -132Q962 -122 959 -108T947 -76T933 -44T928 -20Q922 -4 922 21T932 80T950 139T960 180Q956 210 935 239T869 280T789 289T736 284V332Q746 332 762 332T800 332T838 332T864 332Q878 334 898 345T935 381T954 427T952 460Q946 490 925 517T862 552T787 555T736 548V588Q748 590 766 591T809 593T854 597T888 604Q908 614 927 633T953 682T957 735T952 772L936 780Q934 780 931 780T924 780T917 780T912 780Q910 780 907 779T901 775T897 769T896 764Q896 758 896 749T896 727T896 703T896 684Q894 684 892 684T889 683T888 680T888 676Q876 664 857 656T812 649T767 652T736 652V756Q734 758 731 761T724 768T717 775T712 780H696L680 764V652H576Q558 650 541 659T516 694T507 741T504 772Q500 774 494 776T481 778T470 776T464 772Q462 768 460 763T457 752T456 741T456 732Q456 728 456 721T457 703T460 683T464 668Q472 642 494 620T557 592T630 588T680 588V548Q670 548 656 548T625 548T596 548T576 548Q560 552 536 546T490 514T464 462T464 420L488 364Q494 360 503 353T525 339T549 331T568 332H680V284Q660 288 623 291T542 279T481 233T464 172Q464 162 468 146T481 107T496 66T504 36V36ZM568 492V388L544 396Q538 402 532 410T523 427T520 442T520 452Q522 458 527 466T541 481T557 490T568 492V492ZM680 492V388H632V492H680V492ZM784 492Q784 484 784 471T784 440T784 409T784 388Q780 388 774 388T760 388T746 388T736 388V492H784V492ZM896 452Q896 448 895 441T890 424T881 407T872 396Q870 396 867 395T860 392T853 389T848 388Q848 398 847 412T845 443T845 472T848 492H864Q868 490 873 486T883 475T891 462T896 452V452Z" /></g></g><g transform="translate(1024,1024)"><g transform="scale(1,-1) translate(0,-820)"><path stroke="none" fill="#FFFFFF" d="M128 780Q100 774 74 753T39 690T34 615T40 564Q38 560 38 553T44 535T58 515T72 500Q90 484 118 472T184 459T250 460T296 460Q298 462 301 465T308 472T315 479T320 484Q320 488 320 493T319 503T316 511T312 516Q296 520 272 521T216 520T160 519T120 524L104 540Q102 544 101 550T101 564T103 578T104 588H216Q222 588 232 588T256 588T280 588T296 588Q302 592 308 598T317 612T320 626T320 636L296 652H184Q176 652 165 652T140 652T115 652T96 652Q96 658 97 667T103 687T115 705T128 716Q144 718 167 719T220 720T273 721T312 724L320 748Q320 750 320 753T319 760T316 767T312 772Q296 776 273 779T220 782T167 781T128 780V780ZM80 116Q80 96 78 67T69 0T54 -67T40 -116Q40 -118 41 -121T45 -129T51 -139T56 -148H80L96 -132Q114 -94 130 -38T144 92T126 222T96 316Q96 320 97 326T101 339T107 350T112 356Q116 358 122 361T136 367T150 371T160 372H248Q252 372 257 372T268 372T279 372T288 372H864Q868 370 873 366T883 355T891 342T896 332Q896 332 896 332T896 331T896 328T896 324Q890 302 881 269T864 192T855 115T856 60Q858 44 862 20T875 -37T894 -96T912 -140L920 -148Q922 -146 926 -144T936 -141T946 -140T952 -140L960 -124Q958 -110 952 -89T937 -40T924 9T920 44Q916 70 918 108T931 196T950 284T960 348Q954 358 943 374T914 406T881 426T856 428H360Q358 428 355 428T348 428T341 428T336 428Q314 426 272 432T173 434T84 400T40 332Q42 314 47 287T60 224T73 161T80 116V116ZM200 316V164Q202 154 202 140T204 108T214 76T232 52Q250 38 279 29T349 21T421 23T472 20V-52Q468 -56 462 -62T448 -75T434 -86T424 -92Q406 -82 378 -70T313 -58T250 -74T208 -108V-124Q208 -126 209 -129T213 -136T219 -143T224 -148H248Q266 -130 293 -126T357 -134T423 -146T472 -132Q490 -124 506 -107T529 -62T538 -13T544 20Q546 20 550 20T560 20T570 20T576 20Q594 20 626 18T699 25T762 58T792 108Q792 126 794 154T797 220T794 286T784 332Q782 334 778 336T768 338T758 336T752 332Q744 326 738 316T732 291T734 264T736 244V116Q732 112 727 107T716 96T705 85T696 76H536V132Q542 132 551 132T573 132T597 132T616 132Q642 144 665 173T683 245T651 311T600 340Q576 336 535 340T441 342T357 316T312 260Q312 258 312 254T312 244T312 234T312 228Q314 208 328 184T374 144T432 128T472 132V76H304Q300 78 294 82T281 92T270 102T264 108Q264 114 264 123T264 144T264 165T264 180Q264 192 265 211T265 256T259 301T248 332L240 340Q236 340 231 339T220 334T209 325T200 316V316ZM416 708Q406 704 391 695T363 669T349 637T352 612Q354 604 358 591T372 564T394 545T416 540L360 516L352 500Q352 496 353 491T357 480T363 469T368 460Q378 460 394 464T432 477T470 492T496 500Q506 500 522 495T560 480T598 465T624 460Q626 462 629 464T636 468T643 472T648 476Q648 480 648 485T647 495T644 503T640 508L592 540Q608 546 625 561T647 603T643 651T624 684Q620 686 615 689T604 695T593 699T584 700Q588 702 595 705T612 713T629 723T640 732L648 748L640 772Q628 776 610 775T569 765T530 749T504 740Q494 744 480 750T448 763T416 774T392 780Q388 780 382 780T369 778T358 772T352 764V732Q356 730 363 727T381 720T401 713T416 708V708ZM384 212Q382 216 380 223T379 240T384 257T392 268Q410 272 436 275T496 278T556 277T600 276L624 260V220Q620 218 615 215T605 208T597 201T592 196Q590 196 588 196T584 196T580 196T576 196Q560 198 536 197T480 195T424 199T384 212V212ZM584 604Q576 600 565 595T540 584T515 573T496 564L424 596L408 612L424 644Q430 646 439 650T461 660T485 670T504 676Q510 672 520 667T545 655T572 641T592 628L584 604V604ZM688 516L680 508Q680 506 680 503T680 496T680 489T680 484L696 468L680 460Q696 462 720 462T776 461T832 462T872 468Q896 470 920 486T955 539T964 606T960 652Q962 666 956 690T927 740T880 774T840 780Q828 778 808 780T761 783T716 776T688 756V740L696 724Q710 724 731 724T781 723T833 720T872 716Q876 714 880 711T887 703T892 693T896 684V652Q890 652 880 652T856 652T832 652T816 652H736Q732 652 726 652T712 651T698 648T688 644L680 628V612L696 596Q712 596 737 596T796 595T855 592T896 588V548Q894 546 891 543T884 536T877 529T872 524H744Q738 524 730 524T713 523T698 520T688 516V516Z" /></g></g></g></svg>