<svg version="1.1" xmlns="http://www.w3.org/2000/svg" width="590" height="590" viewBox="0 0 590 590"><g transform="scale(2.305,2.305)"><rect fill="#CC0000" x="0" y="0" rx="16" ry="16" width="256" height="256" /><rect fill="#CC0000" x="9" y="9" rx="12" ry="12" width="238" height="238" /></g><g transform="translate(39,39) scale(0.25,0.25)"><g transform="translate(0,0)"><g transform="scale(1,-1) translate(0,-820)"><path stroke="none" fill="#FFFFFF" d="M102 781H259Q299 781 318 762Q337 743 337 702V-93Q337 -148 299 -148Q261 -148 261 -93V515H156Q132 515 121 504Q110 493 110 469V-93Q110 -148 73 -148Q36 -148 36 -93V517Q36 559 55 578Q73 596 114 596H261V652Q261 676 249 687Q237 698 213 698H102Q46 698 46 739Q46 781 102 781V781V781ZM530 726V-24L647 198Q658 222 663 241Q669 263 669 286V724Q669 780 708 780Q747 780 747 724V286Q747 262 752 241Q757 220 769 198L886 -16V724Q886 780 921 780Q956 780 956 724V-69Q956 -109 937 -128Q919 -147 878 -147H536Q494 -147 476 -128Q458 -110 458 -69V726Q458 782 494 782Q530 782 530 726V726V726ZM685 115L582 -75H830L729 115Q718 136 707 136Q697 136 685 115V115V115V116V115Z" /></g></g><g transform="translate(1024,0)"><g transform="scale(1,-1) translate(0,-820)"><path stroke="none" fill="#FFFFFF" d="M88 781H343Q384 781 403 762Q422 743 422 702V648H566V702Q566 743 584 762Q603 781 645 781H894Q950 781 950 740Q950 700 894 700H687Q663 700 652 693Q641 685 641 670V648H898Q954 648 954 611Q954 574 898 574H641V537Q641 497 622 478Q603 459 562 459H530V409H765Q806 409 825 391Q844 372 844 330V168Q844 127 825 108Q806 89 765 89H617V-26Q617 -51 628 -63Q639 -75 663 -75H729Q753 -75 764 -64Q775 -54 775 -32V5Q775 62 810 62Q844 62 844 5V-69Q844 -110 826 -128Q807 -147 765 -147H623Q581 -147 562 -128Q544 -110 544 -69V89H452V-69Q452 -109 433 -128Q414 -147 373 -147H227Q185 -147 166 -128Q148 -110 148 -69V9Q148 66 185 66Q223 66 223 9V-32Q223 -54 232 -64Q243 -75 265 -75H325Q348 -75 359 -63Q369 -51 369 -26V89H225Q183 89 164 108Q146 127 146 168V330Q146 373 164 391Q182 409 225 409H458V451H428Q386 451 367 470Q349 488 349 529V574H90Q34 574 34 611Q34 648 90 648H349V670Q349 685 337 692Q326 698 301 698H88Q32 698 32 739Q32 781 88 781V781V781ZM422 574V556Q422 543 431 537Q441 531 464 531H524Q545 531 555 537Q566 543 566 556V574H422V574ZM36 453Q36 495 55 513Q73 531 114 531H261Q317 531 317 495Q317 459 261 459H156Q132 459 121 448Q110 437 110 413V-97Q110 -152 73 -152Q36 -152 36 -97V453V453ZM733 531H878Q919 531 937 513Q956 495 956 453V-95Q956 -150 920 -150Q884 -150 884 -95V413Q884 437 872 448Q860 459 836 459H733Q676 459 676 495Q676 531 733 531V531V531ZM221 310V292H456V334H267Q242 334 232 328Q221 323 221 310V310V310ZM530 334V292H763V310Q763 323 751 328Q739 334 715 334H530V334ZM225 222V198Q225 181 236 172Q247 164 271 164H456V222H225V222ZM530 222V164H715Q738 164 751 172Q763 181 763 198V222H530V222V223V222Z" /></g></g><g transform="translate(0,1024)"><g transform="scale(1,-1) translate(0,-820)"><path stroke="none" fill="#FFFFFF" d="M227 781H878Q919 781 937 762Q956 743 956 702V535Q956 495 937 476Q919 457 878 457H287Q262 457 252 452Q241 446 241 433V397Q241 385 252 379Q263 373 287 373H878Q919 373 937 355Q956 336 956 294V-99Q956 -154 919 -154Q882 -154 882 -99V246Q882 270 870 281Q858 292 834 292H253Q211 292 192 311Q174 330 174 371V451Q174 493 192 511Q211 529 253 529H836Q860 529 872 541Q884 554 884 578V652Q884 676 872 687Q860 698 836 698H590V596Q590 540 553 540Q516 540 516 596V698H227Q169 698 169 739Q169 781 227 781V781V781ZM110 722V220H753Q809 220 809 181Q809 141 753 141H112V71H753Q809 71 809 33Q809 -4 753 -4H110V-30Q110 -50 121 -58Q132 -67 156 -67H755Q813 -67 813 -108Q813 -149 755 -149H114Q73 -149 55 -130Q36 -111 36 -71V722Q36 778 73 778Q110 778 110 722V722V722V723V722Z" /></g></g><g transform="translate(1024,1024)"><g transform="scale(1,-1) translate(0,-820)"><path stroke="none" fill="#FFFFFF" d="M422 738Q456 761 489 761Q521 762 556 740L603 714H878Q919 714 937 695Q956 676 956 634V537Q956 497 937 478Q919 459 878 459H844Q818 459 808 448Q797 437 797 413V-26Q797 -51 803 -63Q808 -75 822 -75H858Q871 -75 878 -63Q884 -51 884 -26V278Q884 335 920 335Q956 335 956 278V-69Q956 -109 937 -128Q919 -147 878 -147H804Q762 -147 743 -128Q725 -110 725 -69V453Q725 495 743 513Q761 531 801 531H836Q861 531 873 539Q884 547 884 564V610Q884 626 872 633Q860 640 836 640H641V-77Q641 -132 604 -132Q566 -132 566 -77V650L530 668Q509 680 490 680Q471 680 450 668L422 650V-77Q422 -132 385 -132Q349 -132 349 -77V640H156Q132 640 121 633Q110 626 110 610V564Q110 547 120 539Q130 531 154 531H188Q227 531 244 513Q263 495 263 453V-69Q263 -109 244 -128Q225 -147 184 -147H114Q73 -147 55 -128Q36 -109 36 -69V284Q36 341 73 341Q110 341 110 284V-26Q110 -51 115 -63Q120 -75 132 -75H166Q178 -75 184 -63Q190 -50 190 -26V413Q190 437 179 448Q168 459 144 459H110Q72 459 54 478Q36 497 36 537V634Q36 676 55 695Q73 714 114 714H379L422 738V738V739V738Z" /></g></g></g></svg>