<svg version="1.1" xmlns="http://www.w3.org/2000/svg" width="333" height="333" viewBox="0 0 222 222"><g transform="scale(0.867,0.867)"><rect fill="#CC0000" x="0" y="0" rx="16" ry="16" width="256" height="256" /><rect fill="#CC0000" x="9" y="9" rx="12" ry="12" width="238" height="238" /></g><g transform="translate(15,15) scale(0.094,0.094)"><g transform="translate(0,0)"><g transform="scale(1,-1) translate(0,-820)"><path stroke="none" fill="#FFFFFF" d="M36 702Q36 743 55 762Q73 781 114 781H878Q919 781 937 762Q956 743 956 702V529Q956 489 937 470Q919 451 878 451H530V83H739V156H677Q635 156 617 174Q598 193 598 234V379Q598 436 634 436Q669 436 669 379V284Q669 260 678 248Q688 236 709 236H739V377Q739 434 779 434Q820 434 820 377V236H846Q865 236 875 248Q884 260 884 284V377Q884 434 920 434Q956 434 956 377V234Q956 193 937 174Q919 156 878 156H820V83H900Q956 83 956 44Q956 5 900 5H641V-28Q641 -52 652 -64Q663 -75 687 -75H906Q962 -75 962 -111Q962 -147 906 -147H645Q603 -147 584 -128Q566 -110 566 -69V5H422V-69Q422 -109 403 -128Q384 -147 343 -147H90Q34 -147 34 -111Q34 -75 90 -75H301Q325 -75 337 -64Q349 -52 349 -28V5H88Q32 5 32 44Q32 83 88 83H176V156H114Q73 156 55 174Q36 193 36 234V379Q36 436 73 436Q110 436 110 379V284Q110 259 119 248Q128 236 148 236H176V381Q176 438 217 438Q257 438 257 381V236H283Q302 236 312 248Q321 260 321 284V379Q321 436 357 436Q393 436 393 379V234Q393 193 375 174Q356 156 315 156H257V83H458V451H114Q73 451 55 470Q36 489 36 529V702V702ZM110 670V648H456V698H156Q131 698 121 691Q110 684 110 670V670V670ZM530 698V648H884V670Q884 684 872 691Q860 698 836 698H530V698ZM110 574V556Q110 543 121 537Q132 531 156 531H456V574H110V574ZM530 574V531H836Q860 531 872 537Q884 543 884 556V574H530V574V575V574Z" /></g></g><g transform="translate(1024,0)"><g transform="scale(1,-1) translate(0,-820)"><path stroke="none" fill="#FFFFFF" d="M92 781H351Q407 781 407 740Q407 700 351 700H92Q36 700 36 740Q36 781 92 781V781V781ZM552 732V656H681V740Q681 795 721 795Q761 795 761 740V656H884V736Q884 791 920 791Q956 791 956 736V300Q956 260 937 241Q919 222 878 222H761V160Q761 135 772 123Q784 111 808 111H878Q919 111 937 93Q956 75 956 33V-69Q956 -109 937 -128Q919 -147 878 -147H528Q471 -147 471 -111Q471 -75 528 -75H836Q860 -75 872 -67Q884 -59 884 -42V1Q884 17 872 24Q860 31 836 31H759Q717 31 699 50Q681 68 681 109V222H552Q510 222 492 241Q474 259 474 300V732Q474 788 513 788Q552 788 552 732V732V732ZM92 596H353Q409 596 409 556Q409 515 353 515H257V-93Q257 -148 220 -148Q182 -148 182 -93V515H92Q36 515 36 556Q36 596 92 596V596V596ZM552 574V475H681V574H552V574ZM761 574V475H884V574H761V574ZM36 409Q36 466 73 466Q110 466 110 409V-91Q110 -146 73 -146Q36 -146 36 -91V409V409ZM333 409Q333 466 370 466Q408 466 408 409V-95Q408 -150 370 -150Q333 -150 333 -95V409V409ZM554 393V340Q554 315 565 304Q576 292 600 292H681V393H554V393ZM761 393V292H836Q860 292 872 304Q884 316 884 340V393H761V393V394V393Z" /></g></g><g transform="translate(0,1024)"><g transform="scale(1,-1) translate(0,-820)"><path stroke="none" fill="#FFFFFF" d="M110 724V676Q110 653 121 643Q132 632 156 632H458V660Q458 681 446 690Q434 698 410 698H198Q141 698 141 739Q141 781 198 781H452Q492 781 511 762Q530 743 530 702V632H836Q860 632 872 637Q884 642 884 652V680Q884 690 872 694Q861 698 836 698H625Q567 698 567 739Q567 781 625 781H878Q919 781 937 762Q956 743 956 702V630Q956 589 937 570Q919 552 878 552H530V487H878Q919 487 937 469Q956 451 956 409V-91Q956 -146 920 -146Q884 -146 884 -91V369Q884 392 872 404Q860 415 836 415H530V351H745Q787 351 806 332Q824 314 824 272V210Q824 169 806 150Q787 131 745 131H506Q481 131 471 128Q460 124 460 115V87Q460 78 471 74Q482 69 506 69H745Q786 69 805 51Q824 33 824 -8V-69Q824 -109 805 -128Q786 -147 745 -147H452Q394 -147 394 -111Q394 -75 452 -75H703Q727 -75 739 -70Q751 -66 751 -57V-28Q751 -18 739 -14Q728 -10 703 -10H468Q426 -10 408 8Q389 26 389 67V131Q389 174 408 192Q426 210 468 210H705Q729 210 741 215Q753 219 753 230V260Q753 270 741 274Q730 278 705 278H339V-69Q339 -109 320 -128Q302 -147 261 -147H205Q153 -147 153 -111Q153 -75 205 -75H231Q247 -75 255 -63Q263 -51 263 -26V278H215Q157 278 157 314Q157 351 215 351H458V415H156Q132 415 121 404Q110 393 110 369V-93Q110 -148 73 -148Q36 -148 36 -93V409Q36 451 55 469Q73 487 114 487H458V552H114Q73 552 55 570Q36 589 36 630V724Q36 780 73 780Q110 780 110 724V724V724V725V724Z" /></g></g><g transform="translate(1024,1024)"><g transform="scale(1,-1) translate(0,-820)"><path stroke="none" fill="#FFFFFF" d="M36 702Q36 743 55 762Q73 781 114 781H878Q919 781 937 762Q956 743 956 702V435Q956 394 937 375Q919 357 878 357H114Q73 357 55 375Q36 394 36 435V702V702ZM110 652V604H456V698H156Q132 698 121 687Q110 676 110 652V652V652ZM530 698V604H884V652Q884 675 872 687Q860 698 836 698H530V698ZM110 531V479Q110 454 121 443Q132 431 156 431H456V531H110V531ZM530 531V431H836Q860 431 872 443Q884 455 884 479V531H530V531ZM36 226Q36 268 55 286Q73 304 114 304H363Q419 304 419 268Q419 232 363 232H156Q132 232 121 221Q110 210 110 186V19Q110 -5 120 -14Q131 -23 156 -20L321 3V143Q321 201 357 201Q393 201 393 143V-26Q393 -51 405 -63Q416 -75 440 -75H598V143Q598 201 634 201Q669 201 669 143V97H836Q860 97 872 107Q884 117 884 137V194Q884 214 872 223Q860 232 836 232H625Q567 232 567 266Q567 300 625 300H878Q919 300 937 282Q956 264 956 222V95Q956 55 937 36Q919 17 878 17H669V-75H886Q942 -75 942 -111Q942 -147 886 -147H389Q348 -147 329 -132Q311 -117 311 -85V-83L114 -109Q73 -113 55 -97Q36 -81 36 -40V226V226V227V226Z" /></g></g></g></svg>