<svg version="1.1" xmlns="http://www.w3.org/2000/svg" width="333" height="333" viewBox="0 0 222 222"><g transform="scale(0.867,0.867)"><rect fill="#CC0000" x="0" y="0" rx="16" ry="16" width="256" height="256" /><rect fill="#CC0000" x="9" y="9" rx="12" ry="12" width="238" height="238" /></g><g transform="translate(15,15) scale(0.094,0.094)"><g transform="translate(0,0)"><g transform="scale(1,-1) translate(0,-820)"><path stroke="none" fill="#FFFFFF" d="M110 734V714Q110 702 121 697Q132 692 156 692H213V706Q213 762 249 762Q285 762 285 706V692H351Q376 692 387 697Q399 703 399 714V734Q399 771 437 771Q474 771 474 734V692Q474 654 455 636Q436 618 395 618H287V616Q287 574 250 574Q213 574 213 616V618H114Q74 618 55 636Q36 654 36 692V734Q36 771 73 771Q110 771 110 734V734V734ZM586 730V712Q586 702 597 697Q608 692 633 692H705V706Q705 762 741 762Q777 762 777 706V692H836Q860 692 872 697Q884 702 884 712V730Q884 764 920 764Q956 764 956 730V688Q956 652 937 635Q918 618 878 618H783V616Q783 574 743 574Q703 574 703 616V618H594Q553 618 534 635Q516 652 516 688V730Q516 764 551 764Q586 764 586 730V730V730ZM36 509Q36 567 73 567Q110 567 110 509V373Q110 317 73 317Q36 317 36 373V509V509ZM176 509Q176 567 217 567Q257 567 257 509V-95Q257 -150 217 -150Q176 -150 176 -95V509V509ZM321 501Q321 559 357 559Q393 559 393 501V373Q393 317 357 317Q321 317 321 373V501V501ZM530 519V499Q530 487 541 481Q553 475 576 475H669V501Q669 559 708 559Q747 559 747 501V475H836Q860 475 872 482Q884 488 884 503V523Q884 567 920 567Q956 567 956 523V489Q956 450 937 431Q918 413 878 413H747V379H878Q919 379 937 361Q956 342 956 300V101Q956 77 920 77Q884 77 884 101V103H747V97Q747 41 708 41Q669 41 669 97V103H530V73Q530 46 494 46Q458 46 458 73V300Q458 342 476 361Q494 379 536 379H669V409H536Q494 409 476 426Q458 444 458 483V519Q458 559 494 559Q530 559 530 519V519V519ZM530 286V272H669V300H576Q551 300 541 296Q530 293 530 286V286V286ZM747 300V272H884V286Q884 293 872 296Q860 300 836 300H747V300ZM36 206Q36 263 73 263Q110 263 110 206V-95Q110 -150 73 -150Q36 -150 36 -95V206V206ZM321 206Q321 263 357 263Q393 263 393 206V-95Q393 -150 357 -150Q321 -150 321 -95V206V206ZM530 202V176H669V202H530V202ZM747 202V176H884V202H747V202ZM892 27V25H914Q970 25 970 -9Q970 -44 914 -44H892V-99Q892 -154 852 -154Q812 -154 812 -99V-44H496Q439 -44 439 -9Q439 25 496 25H812V27Q812 69 852 69Q892 69 892 27V27V27ZM498 -75H735Q791 -75 791 -111Q791 -147 735 -147H498Q441 -147 441 -111Q441 -75 498 -75V-75V-75V-74V-75Z" /></g></g><g transform="translate(1024,0)"><g transform="scale(1,-1) translate(0,-820)"><path stroke="none" fill="#FFFFFF" d="M319 722V720H458V722Q458 763 494 763Q530 763 530 722V720H532Q580 720 580 680Q580 640 532 640H530V545Q530 505 511 486Q492 467 452 467H319V427Q319 403 330 391Q341 379 365 379H452Q493 379 511 361Q530 342 530 300V210Q530 169 511 150Q492 131 452 131H303Q279 131 268 120Q257 109 257 85V-18Q257 -43 268 -55Q279 -67 303 -67H492Q548 -67 548 -107Q548 -147 492 -147H255Q213 -147 194 -128Q176 -110 176 -69V131Q176 174 194 192Q213 210 255 210H410Q434 210 446 216Q458 223 458 236V276Q458 289 446 295Q434 300 410 300H327Q285 300 267 319Q249 338 249 379V467H116L184 401Q225 361 203 332Q181 302 140 342L108 377V-91Q108 -146 72 -146Q36 -146 36 -91V640Q36 682 55 701Q73 720 114 720H249V722Q249 771 284 771Q319 771 319 722V722V722ZM110 594V554H247V640H156Q132 640 121 629Q110 618 110 594V594V594ZM319 640V554H410Q433 554 445 566Q456 577 456 602V640H319V640ZM669 704V632H884V702Q884 758 920 758Q956 758 956 702V-69Q956 -109 937 -128Q919 -147 878 -147H677Q635 -147 617 -128Q598 -110 598 -69V704Q598 760 634 760Q669 760 669 704V704V704ZM669 548V-6Q669 -30 680 -42Q691 -55 715 -55H836Q859 -55 872 -42Q884 -30 884 -6V548H669V548V549V548Z" /></g></g><g transform="translate(0,1024)"><g transform="scale(1,-1) translate(0,-820)"><path stroke="none" fill="#FFFFFF" d="M213 714V594Q213 568 219 549Q226 530 241 513L275 477Q313 435 286 408Q259 382 219 421L201 439Q187 453 175 453Q164 453 150 439L128 417Q87 378 62 403Q36 429 74 471L108 511Q125 530 132 549Q140 568 140 594V714Q140 770 176 770Q213 770 213 714V714V714ZM387 773H452Q492 773 511 754Q530 735 530 694V558Q530 517 511 498Q492 479 452 479H391Q334 479 334 519Q334 560 391 560H422Q440 560 449 570Q458 581 458 602V658Q458 679 448 689Q439 698 420 698H387Q330 698 330 735Q330 773 387 773V773V773ZM669 722V560H836Q860 560 872 570Q884 581 884 602V658Q884 679 874 689Q865 698 844 698H806Q748 698 748 739Q748 781 806 781H878Q919 781 937 762Q956 743 956 702V558Q956 517 937 498Q919 479 878 479H669V-91Q669 -146 632 -146Q594 -146 594 -91V722Q594 778 632 778Q669 778 669 722V722V722ZM321 316Q321 359 339 377Q357 395 399 395H452Q493 395 511 377Q530 358 530 316V53Q530 -2 494 -2Q458 -2 458 53V268Q458 292 453 303Q449 314 440 314H412Q401 314 397 303Q393 293 393 268V-26Q393 -51 402 -63Q410 -75 428 -75H458Q514 -75 514 -111Q514 -147 458 -147H399Q358 -147 339 -128Q321 -110 321 -69V316V316ZM878 395Q919 395 937 377Q956 358 956 316V97Q956 41 920 41Q884 41 884 97V268Q884 292 879 303Q874 314 864 314H834Q823 314 818 303Q814 292 814 268V-26Q814 -51 823 -63Q832 -75 852 -75H886Q942 -75 942 -111Q942 -147 886 -147H818Q776 -147 757 -128Q739 -110 739 -69V316Q739 359 757 377Q775 395 818 395H878V395ZM213 284V57Q213 31 219 14Q226 -3 241 -18L269 -48Q308 -89 287 -119Q265 -149 225 -109L205 -87Q191 -73 180 -73Q168 -72 156 -85L138 -103Q100 -140 72 -117Q44 -94 80 -55L112 -20Q126 -3 133 13Q140 33 140 57V284Q140 341 176 341Q213 341 213 284V284V284V285V284Z" /></g></g><g transform="translate(1024,1024)"><g transform="scale(1,-1) translate(0,-820)"><path stroke="none" fill="#FFFFFF" d="M82 781H878Q919 781 937 762Q956 743 956 702V662Q956 620 937 602Q919 584 878 584H156Q132 584 121 572Q110 560 110 535V-91Q110 -146 73 -146Q36 -146 36 -91V584Q36 626 55 644Q73 662 114 662H836Q859 662 872 665Q884 667 884 672V690Q884 695 872 696Q861 698 836 698H82Q26 698 26 739Q26 781 82 781V781V781ZM586 523H884V545Q884 562 920 562Q956 562 956 545V190Q956 141 920 141Q884 141 884 190V192H586V152Q586 117 545 117Q504 117 504 152V525Q504 562 545 562Q586 562 586 525V523V523ZM196 554H373Q414 554 433 535Q452 517 452 475V435Q452 394 433 375Q414 357 373 357H196Q139 357 139 394Q139 431 196 431H321Q347 431 358 434Q369 437 369 445V463Q369 470 358 473Q349 475 323 475H196Q139 475 139 514Q139 554 196 554V554V554ZM586 443V401H884V443H586V443ZM586 314V264H884V314H586V314ZM158 244Q158 286 176 304Q194 322 237 322H373Q414 322 433 304Q452 286 452 244V-69Q452 -109 433 -128Q414 -147 373 -147H211Q153 -147 153 -111Q153 -75 211 -75H321Q345 -75 357 -63Q369 -50 369 -26V202Q369 226 360 237Q350 248 329 248H271Q250 248 241 237Q233 226 233 202V27Q233 -28 195 -28Q158 -28 158 27V244V244ZM743 150L779 97Q804 85 838 90L884 97V117Q885 134 921 134Q956 134 956 117V-32Q956 -73 937 -92Q919 -111 878 -111H828H830Q840 -137 807 -147Q775 -156 759 -133L739 -105H550Q493 -105 493 -65Q493 -24 550 -24H717V17H554Q497 17 497 57Q497 97 554 97H701L693 107Q651 147 680 171Q710 196 743 150V150V150ZM783 17V-24H836Q860 -24 872 -18Q884 -12 884 0V17H783V17V18V17Z" /></g></g></g></svg>